<?xml version="1.0" standalone="no"?>
<!DOCTYPE svg PUBLIC "-//W3C//DTD SVG 1.1//EN" "http://www.w3.org/Graphics/SVG/1.1/DTD/svg11.dtd">
<svg version="1.1" width="1200" height="390" onload="init(evt)" viewBox="0 0 1200 390" xmlns="http://www.w3.org/2000/svg" xmlns:xlink="http://www.w3.org/1999/xlink">
<!-- Flame graph stack visualization. See https://github.com/brendangregg/FlameGraph for latest version, and http://www.brendangregg.com/flamegraphs.html for examples. -->
<!-- NOTES:  -->
<defs>
	<linearGradient id="background" y1="0" y2="1" x1="0" x2="0" >
		<stop stop-color="#eeeeee" offset="5%" />
		<stop stop-color="#eeeeb0" offset="95%" />
	</linearGradient>
</defs>
<style type="text/css">
	text { font-family:Verdana; font-size:12px; fill:rgb(0,0,0); }
	#search, #ignorecase { opacity:0.1; cursor:pointer; }
	#search:hover, #search.show, #ignorecase:hover, #ignorecase.show { opacity:1; }
	#subtitle { text-anchor:middle; font-color:rgb(160,160,160); }
	#title { text-anchor:middle; font-size:17px}
	#unzoom { cursor:pointer; }
	#frames > *:hover { stroke:black; stroke-width:0.5; cursor:pointer; }
	.hide { display:none; }
	.parent { opacity:0.5; }
</style>
<script type="text/ecmascript">
<![CDATA[
	"use strict";
	var details, searchbtn, unzoombtn, matchedtxt, svg, searching, currentSearchTerm, ignorecase, ignorecaseBtn;
	function init(evt) {
		details = document.getElementById("details").firstChild;
		searchbtn = document.getElementById("search");
		ignorecaseBtn = document.getElementById("ignorecase");
		unzoombtn = document.getElementById("unzoom");
		matchedtxt = document.getElementById("matched");
		svg = document.getElementsByTagName("svg")[0];
		searching = 0;
		currentSearchTerm = null;

		// use GET parameters to restore a flamegraphs state.
		var params = get_params();
		if (params.x && params.y)
			zoom(find_group(document.querySelector('[x="' + params.x + '"][y="' + params.y + '"]')));
                if (params.s) search(params.s);
	}

	// event listeners
	window.addEventListener("click", function(e) {
		var target = find_group(e.target);
		if (target) {
			if (target.nodeName == "a") {
				if (e.ctrlKey === false) return;
				e.preventDefault();
			}
			if (target.classList.contains("parent")) unzoom(true);
			zoom(target);
			if (!document.querySelector('.parent')) {
				// we have basically done a clearzoom so clear the url
				var params = get_params();
				if (params.x) delete params.x;
				if (params.y) delete params.y;
				history.replaceState(null, null, parse_params(params));
				unzoombtn.classList.add("hide");
				return;
			}

			// set parameters for zoom state
			var el = target.querySelector("rect");
			if (el && el.attributes && el.attributes.y && el.attributes._orig_x) {
				var params = get_params()
				params.x = el.attributes._orig_x.value;
				params.y = el.attributes.y.value;
				history.replaceState(null, null, parse_params(params));
			}
		}
		else if (e.target.id == "unzoom") clearzoom();
		else if (e.target.id == "search") search_prompt();
		else if (e.target.id == "ignorecase") toggle_ignorecase();
	}, false)

	// mouse-over for info
	// show
	window.addEventListener("mouseover", function(e) {
		var target = find_group(e.target);
		if (target) details.nodeValue = "Function: " + g_to_text(target);
	}, false)

	// clear
	window.addEventListener("mouseout", function(e) {
		var target = find_group(e.target);
		if (target) details.nodeValue = ' ';
	}, false)

	// ctrl-F for search
	// ctrl-I to toggle case-sensitive search
	window.addEventListener("keydown",function (e) {
		if (e.keyCode === 114 || (e.ctrlKey && e.keyCode === 70)) {
			e.preventDefault();
			search_prompt();
		}
		else if (e.ctrlKey && e.keyCode === 73) {
			e.preventDefault();
			toggle_ignorecase();
		}
	}, false)

	// functions
	function get_params() {
		var params = {};
		var paramsarr = window.location.search.substr(1).split('&');
		for (var i = 0; i < paramsarr.length; ++i) {
			var tmp = paramsarr[i].split("=");
			if (!tmp[0] || !tmp[1]) continue;
			params[tmp[0]]  = decodeURIComponent(tmp[1]);
		}
		return params;
	}
	function parse_params(params) {
		var uri = "?";
		for (var key in params) {
			uri += key + '=' + encodeURIComponent(params[key]) + '&';
		}
		if (uri.slice(-1) == "&")
			uri = uri.substring(0, uri.length - 1);
		if (uri == '?')
			uri = window.location.href.split('?')[0];
		return uri;
	}
	function find_child(node, selector) {
		var children = node.querySelectorAll(selector);
		if (children.length) return children[0];
	}
	function find_group(node) {
		var parent = node.parentElement;
		if (!parent) return;
		if (parent.id == "frames") return node;
		return find_group(parent);
	}
	function orig_save(e, attr, val) {
		if (e.attributes["_orig_" + attr] != undefined) return;
		if (e.attributes[attr] == undefined) return;
		if (val == undefined) val = e.attributes[attr].value;
		e.setAttribute("_orig_" + attr, val);
	}
	function orig_load(e, attr) {
		if (e.attributes["_orig_"+attr] == undefined) return;
		e.attributes[attr].value = e.attributes["_orig_" + attr].value;
		e.removeAttribute("_orig_"+attr);
	}
	function g_to_text(e) {
		var text = find_child(e, "title").firstChild.nodeValue;
		return (text)
	}
	function g_to_func(e) {
		var func = g_to_text(e);
		// if there's any manipulation we want to do to the function
		// name before it's searched, do it here before returning.
		return (func);
	}
	function update_text(e) {
		var r = find_child(e, "rect");
		var t = find_child(e, "text");
		var w = parseFloat(r.attributes.width.value) -3;
		var txt = find_child(e, "title").textContent.replace(/\([^(]*\)$/,"");
		t.attributes.x.value = parseFloat(r.attributes.x.value) + 3;

		// Smaller than this size won't fit anything
		if (w < 2 * 12 * 0.59) {
			t.textContent = "";
			return;
		}

		t.textContent = txt;
		var sl = t.getSubStringLength(0, txt.length);
		// check if only whitespace or if we can fit the entire string into width w
		if (/^ *$/.test(txt) || sl < w)
			return;

		// this isn't perfect, but gives a good starting point
		// and avoids calling getSubStringLength too often
		var start = Math.floor((w/sl) * txt.length);
		for (var x = start; x > 0; x = x-2) {
			if (t.getSubStringLength(0, x + 2) <= w) {
				t.textContent = txt.substring(0, x) + "..";
				return;
			}
		}
		t.textContent = "";
	}

	// zoom
	function zoom_reset(e) {
		if (e.attributes != undefined) {
			orig_load(e, "x");
			orig_load(e, "width");
		}
		if (e.childNodes == undefined) return;
		for (var i = 0, c = e.childNodes; i < c.length; i++) {
			zoom_reset(c[i]);
		}
	}
	function zoom_child(e, x, ratio) {
		if (e.attributes != undefined) {
			if (e.attributes.x != undefined) {
				orig_save(e, "x");
				e.attributes.x.value = (parseFloat(e.attributes.x.value) - x - 10) * ratio + 10;
				if (e.tagName == "text")
					e.attributes.x.value = find_child(e.parentNode, "rect[x]").attributes.x.value + 3;
			}
			if (e.attributes.width != undefined) {
				orig_save(e, "width");
				e.attributes.width.value = parseFloat(e.attributes.width.value) * ratio;
			}
		}

		if (e.childNodes == undefined) return;
		for (var i = 0, c = e.childNodes; i < c.length; i++) {
			zoom_child(c[i], x - 10, ratio);
		}
	}
	function zoom_parent(e) {
		if (e.attributes) {
			if (e.attributes.x != undefined) {
				orig_save(e, "x");
				e.attributes.x.value = 10;
			}
			if (e.attributes.width != undefined) {
				orig_save(e, "width");
				e.attributes.width.value = parseInt(svg.width.baseVal.value) - (10 * 2);
			}
		}
		if (e.childNodes == undefined) return;
		for (var i = 0, c = e.childNodes; i < c.length; i++) {
			zoom_parent(c[i]);
		}
	}
	function zoom(node) {
		var attr = find_child(node, "rect").attributes;
		var width = parseFloat(attr.width.value);
		var xmin = parseFloat(attr.x.value);
		var xmax = parseFloat(xmin + width);
		var ymin = parseFloat(attr.y.value);
		var ratio = (svg.width.baseVal.value - 2 * 10) / width;

		// XXX: Workaround for JavaScript float issues (fix me)
		var fudge = 0.0001;

		unzoombtn.classList.remove("hide");

		var el = document.getElementById("frames").children;
		for (var i = 0; i < el.length; i++) {
			var e = el[i];
			var a = find_child(e, "rect").attributes;
			var ex = parseFloat(a.x.value);
			var ew = parseFloat(a.width.value);
			var upstack;
			// Is it an ancestor
			if (0 == 0) {
				upstack = parseFloat(a.y.value) > ymin;
			} else {
				upstack = parseFloat(a.y.value) < ymin;
			}
			if (upstack) {
				// Direct ancestor
				if (ex <= xmin && (ex+ew+fudge) >= xmax) {
					e.classList.add("parent");
					zoom_parent(e);
					update_text(e);
				}
				// not in current path
				else
					e.classList.add("hide");
			}
			// Children maybe
			else {
				// no common path
				if (ex < xmin || ex + fudge >= xmax) {
					e.classList.add("hide");
				}
				else {
					zoom_child(e, xmin, ratio);
					update_text(e);
				}
			}
		}
		search();
	}
	function unzoom(dont_update_text) {
		unzoombtn.classList.add("hide");
		var el = document.getElementById("frames").children;
		for(var i = 0; i < el.length; i++) {
			el[i].classList.remove("parent");
			el[i].classList.remove("hide");
			zoom_reset(el[i]);
			if(!dont_update_text) update_text(el[i]);
		}
		search();
	}
	function clearzoom() {
		unzoom();

		// remove zoom state
		var params = get_params();
		if (params.x) delete params.x;
		if (params.y) delete params.y;
		history.replaceState(null, null, parse_params(params));
	}

	// search
	function toggle_ignorecase() {
		ignorecase = !ignorecase;
		if (ignorecase) {
			ignorecaseBtn.classList.add("show");
		} else {
			ignorecaseBtn.classList.remove("show");
		}
		reset_search();
		search();
	}
	function reset_search() {
		var el = document.querySelectorAll("#frames rect");
		for (var i = 0; i < el.length; i++) {
			orig_load(el[i], "fill")
		}
		var params = get_params();
		delete params.s;
		history.replaceState(null, null, parse_params(params));
	}
	function search_prompt() {
		if (!searching) {
			var term = prompt("Enter a search term (regexp " +
			    "allowed, eg: ^ext4_)"
			    + (ignorecase ? ", ignoring case" : "")
			    + "\nPress Ctrl-i to toggle case sensitivity", "");
			if (term != null) search(term);
		} else {
			reset_search();
			searching = 0;
			currentSearchTerm = null;
			searchbtn.classList.remove("show");
			searchbtn.firstChild.nodeValue = "Search"
			matchedtxt.classList.add("hide");
			matchedtxt.firstChild.nodeValue = ""
		}
	}
	function search(term) {
		if (term) currentSearchTerm = term;
		if (currentSearchTerm === null) return;

		var re = new RegExp(currentSearchTerm, ignorecase ? 'i' : '');
		var el = document.getElementById("frames").children;
		var matches = new Object();
		var maxwidth = 0;
		for (var i = 0; i < el.length; i++) {
			var e = el[i];
			var func = g_to_func(e);
			var rect = find_child(e, "rect");
			if (func == null || rect == null)
				continue;

			// Save max width. Only works as we have a root frame
			var w = parseFloat(rect.attributes.width.value);
			if (w > maxwidth)
				maxwidth = w;

			if (func.match(re)) {
				// highlight
				var x = parseFloat(rect.attributes.x.value);
				orig_save(rect, "fill");
				rect.attributes.fill.value = "rgb(230,0,230)";

				// remember matches
				if (matches[x] == undefined) {
					matches[x] = w;
				} else {
					if (w > matches[x]) {
						// overwrite with parent
						matches[x] = w;
					}
				}
				searching = 1;
			}
		}
		if (!searching)
			return;
		var params = get_params();
		params.s = currentSearchTerm;
		history.replaceState(null, null, parse_params(params));

		searchbtn.classList.add("show");
		searchbtn.firstChild.nodeValue = "Reset Search";

		// calculate percent matched, excluding vertical overlap
		var count = 0;
		var lastx = -1;
		var lastw = 0;
		var keys = Array();
		for (k in matches) {
			if (matches.hasOwnProperty(k))
				keys.push(k);
		}
		// sort the matched frames by their x location
		// ascending, then width descending
		keys.sort(function(a, b){
			return a - b;
		});
		// Step through frames saving only the biggest bottom-up frames
		// thanks to the sort order. This relies on the tree property
		// where children are always smaller than their parents.
		var fudge = 0.0001;	// JavaScript floating point
		for (var k in keys) {
			var x = parseFloat(keys[k]);
			var w = matches[keys[k]];
			if (x >= lastx + lastw - fudge) {
				count += w;
				lastx = x;
				lastw = w;
			}
		}
		// display matched percent
		matchedtxt.classList.remove("hide");
		var pct = 100 * count / maxwidth;
		if (pct != 100) pct = pct.toFixed(1)
		matchedtxt.firstChild.nodeValue = "Matched: " + pct + "%";
	}
]]>
</script>
<rect x="0.0" y="0" width="1200.0" height="390.0" fill="url(#background)"  />
<text id="title" x="600.00" y="24" >Flame Graph</text>
<text id="details" x="10.00" y="373" > </text>
<text id="unzoom" x="10.00" y="24" class="hide">Reset Zoom</text>
<text id="search" x="1090.00" y="24" >Search</text>
<text id="ignorecase" x="1174.00" y="24" >ic</text>
<text id="matched" x="1090.00" y="373" > </text>
<g id="frames">
<g >
<title>std::char_traits&lt;…&gt;::assign(char&amp;, char const&amp;) (108,899,396 samples, 0.02%)</title><rect x="1175.8" y="197" width="0.3" height="15.0" fill="rgb(216,50,12)" rx="2" ry="2" />
<text  x="1178.83" y="207.5" ></text>
</g>
<g >
<title>std::string::operator+=(char) (1,569,681,451 samples, 0.35%)</title><rect x="515.0" y="229" width="4.1" height="15.0" fill="rgb(215,47,11)" rx="2" ry="2" />
<text  x="518.02" y="239.5" ></text>
</g>
<g >
<title>__mpn_lshift (15,685,725,588 samples, 3.49%)</title><rect x="267.6" y="197" width="41.2" height="15.0" fill="rgb(235,139,33)" rx="2" ry="2" />
<text  x="270.61" y="207.5" >__m..</text>
</g>
<g >
<title>std::string::_M_data() const (215,817,053 samples, 0.05%)</title><rect x="391.8" y="213" width="0.6" height="15.0" fill="rgb(231,119,28)" rx="2" ry="2" />
<text  x="394.84" y="223.5" ></text>
</g>
<g >
<title>std::char_traits&lt;…&gt;::to_int_type(char const&amp;) (620,528,375 samples, 0.14%)</title><rect x="457.9" y="229" width="1.6" height="15.0" fill="rgb(254,227,54)" rx="2" ry="2" />
<text  x="460.86" y="239.5" ></text>
</g>
<g >
<title>round_and_return (27,251,462,296 samples, 6.07%)</title><rect x="317.3" y="197" width="71.5" height="15.0" fill="rgb(246,188,45)" rx="2" ry="2" />
<text  x="320.26" y="207.5" >round_an..</text>
</g>
<g >
<title>std::string::substr(unsigned long, unsigned long) const (5,891,922,395 samples, 1.31%)</title><rect x="1170.1" y="261" width="15.5" height="15.0" fill="rgb(234,134,32)" rx="2" ry="2" />
<text  x="1173.09" y="271.5" ></text>
</g>
<g >
<title>round_and_return::get_rounding_mode (2,015,243,785 samples, 0.45%)</title><rect x="376.6" y="181" width="5.3" height="15.0" fill="rgb(212,34,8)" rx="2" ry="2" />
<text  x="379.57" y="191.5" ></text>
</g>
<g >
<title>operator new(unsigned long) (925,746,395 samples, 0.21%)</title><rect x="1173.1" y="213" width="2.4" height="15.0" fill="rgb(233,131,31)" rx="2" ry="2" />
<text  x="1176.07" y="223.5" ></text>
</g>
<g >
<title>std::string::string(std::string const&amp;, unsigned long, unsigned long) (5,873,250,261 samples, 1.31%)</title><rect x="1170.1" y="245" width="15.5" height="15.0" fill="rgb(254,229,54)" rx="2" ry="2" />
<text  x="1173.14" y="255.5" ></text>
</g>
<g >
<title>_init (96,157,958 samples, 0.02%)</title><rect x="765.4" y="165" width="0.2" height="15.0" fill="rgb(233,130,31)" rx="2" ry="2" />
<text  x="768.39" y="175.5" ></text>
</g>
<g >
<title>std::codecvt&lt;…&gt;::do_always_noconv() const (54,761,180 samples, 0.01%)</title><rect x="436.5" y="149" width="0.1" height="15.0" fill="rgb(236,145,34)" rx="2" ry="2" />
<text  x="439.46" y="159.5" ></text>
</g>
<g >
<title>std::string::_M_data() const (1,411,624,940 samples, 0.31%)</title><rect x="484.2" y="181" width="3.7" height="15.0" fill="rgb(231,119,28)" rx="2" ry="2" />
<text  x="487.22" y="191.5" ></text>
</g>
<g >
<title>std::string::_S_copy(char*, char const*, unsigned long) (8,737,615,484 samples, 1.95%)</title><rect x="490.7" y="197" width="22.9" height="15.0" fill="rgb(246,190,45)" rx="2" ry="2" />
<text  x="493.67" y="207.5" >s..</text>
</g>
<g >
<title>__strlen_evex (3,213,707,509 samples, 0.72%)</title><rect x="308.8" y="197" width="8.5" height="15.0" fill="rgb(240,164,39)" rx="2" ry="2" />
<text  x="311.81" y="207.5" ></text>
</g>
<g >
<title>std::__str_hash_base&lt;…&gt;::operator()(std::string const&amp;) const (23,683,279,395 samples, 5.27%)</title><rect x="763.0" y="197" width="62.2" height="15.0" fill="rgb(218,62,14)" rx="2" ry="2" />
<text  x="766.02" y="207.5" >std::_..</text>
</g>
<g >
<title>std::string::_M_dispose() (1,684,971,776 samples, 0.38%)</title><rect x="1185.6" y="245" width="4.4" height="15.0" fill="rgb(242,173,41)" rx="2" ry="2" />
<text  x="1188.57" y="255.5" ></text>
</g>
<g >
<title>std::basic_ios&lt;…&gt;::rdbuf() const (1,388,000,869 samples, 0.31%)</title><rect x="422.5" y="229" width="3.6" height="15.0" fill="rgb(231,123,29)" rx="2" ry="2" />
<text  x="425.47" y="239.5" ></text>
</g>
<g >
<title>std::string::_M_append(char const*, unsigned long) (14,646,544,460 samples, 3.26%)</title><rect x="476.1" y="213" width="38.5" height="15.0" fill="rgb(250,211,50)" rx="2" ry="2" />
<text  x="479.08" y="223.5" >std..</text>
</g>
<g >
<title>std::string::_M_is_local() const (1,206,559,192 samples, 0.27%)</title><rect x="1186.8" y="229" width="3.2" height="15.0" fill="rgb(216,51,12)" rx="2" ry="2" />
<text  x="1189.82" y="239.5" ></text>
</g>
<g >
<title>_init (43,210,537 samples, 0.01%)</title><rect x="1173.0" y="213" width="0.1" height="15.0" fill="rgb(233,130,31)" rx="2" ry="2" />
<text  x="1175.96" y="223.5" ></text>
</g>
<g >
<title>std::__detail::_Hashtable_base&lt;…&gt;::_M_key_equals(std::string const&amp;, std::__detail::_Hash_node_value&lt;…&gt; const&amp;) const (35,767,204,669 samples, 7.96%)</title><rect x="669.1" y="181" width="93.9" height="15.0" fill="rgb(219,66,15)" rx="2" ry="2" />
<text  x="672.06" y="191.5" >std::__deta..</text>
</g>
<g >
<title>std::basic_istream&lt;…&gt;&amp; std::getline&lt;…&gt;(std::basic_istream&lt;…&gt;&amp;, std::string&amp;, char) (46,370,362,735 samples, 10.32%)</title><rect x="397.3" y="245" width="121.8" height="15.0" fill="rgb(244,180,43)" rx="2" ry="2" />
<text  x="400.33" y="255.5" >std::basic_istr..</text>
</g>
<g >
<title>main (449,065,847,469 samples, 99.97%)</title><rect x="10.3" y="277" width="1179.7" height="15.0" fill="rgb(243,179,42)" rx="2" ry="2" />
<text  x="13.32" y="287.5" >main</text>
</g>
<g >
<title>[] (149,592,861 samples, 0.03%)</title><rect x="436.0" y="37" width="0.4" height="15.0" fill="rgb(224,91,21)" rx="2" ry="2" />
<text  x="439.03" y="47.5" ></text>
</g>
<g >
<title>std::string::size() const (235,697,121 samples, 0.05%)</title><rect x="1169.5" y="261" width="0.6" height="15.0" fill="rgb(242,173,41)" rx="2" ry="2" />
<text  x="1172.47" y="271.5" ></text>
</g>
<g >
<title>std::_Hashtable&lt;…&gt;::_M_locate(std::string const&amp;) const (116,501,311,885 samples, 25.94%)</title><rect x="519.2" y="229" width="306.0" height="15.0" fill="rgb(215,48,11)" rx="2" ry="2" />
<text  x="522.19" y="239.5" >std::_Hashtable&lt;…&gt;::_M_locate(std::string..</text>
</g>
<g >
<title>std::stof(std::string const&amp;, unsigned long*) (142,837,225,878 samples, 31.80%)</title><rect x="17.2" y="245" width="375.2" height="15.0" fill="rgb(230,118,28)" rx="2" ry="2" />
<text  x="20.18" y="255.5" >std::stof(std::string const&amp;, unsigned long*)</text>
</g>
<g >
<title>__GI___libc_malloc::tcache_get::tcache_get_n (229,850,796 samples, 0.05%)</title><rect x="1174.9" y="165" width="0.6" height="15.0" fill="rgb(226,99,23)" rx="2" ry="2" />
<text  x="1177.90" y="175.5" ></text>
</g>
<g >
<title>std::_Hash_bytes(void const*, unsigned long, unsigned long) (22,658,534,139 samples, 5.04%)</title><rect x="765.6" y="165" width="59.6" height="15.0" fill="rgb(217,59,14)" rx="2" ry="2" />
<text  x="768.64" y="175.5" >std::_..</text>
</g>
<g >
<title>std::string::size() const (323,563,793 samples, 0.07%)</title><rect x="513.7" y="197" width="0.9" height="15.0" fill="rgb(242,173,41)" rx="2" ry="2" />
<text  x="516.71" y="207.5" ></text>
</g>
<g >
<title>str_to_mpn (14,041,417,167 samples, 3.13%)</title><rect x="201.2" y="181" width="36.9" height="15.0" fill="rgb(252,220,52)" rx="2" ry="2" />
<text  x="204.22" y="191.5" >str..</text>
</g>
<g >
<title>__GI___libc_malloc::tcache_get (229,850,796 samples, 0.05%)</title><rect x="1174.9" y="181" width="0.6" height="15.0" fill="rgb(210,25,6)" rx="2" ry="2" />
<text  x="1177.90" y="191.5" ></text>
</g>
<g >
<title>std::_Hashtable&lt;…&gt;::_M_bucket_index(unsigned long) const (16,177,595,784 samples, 3.60%)</title><rect x="519.4" y="213" width="42.5" height="15.0" fill="rgb(223,84,20)" rx="2" ry="2" />
<text  x="522.42" y="223.5" >std:..</text>
</g>
<g >
<title>std::_Hash_impl::hash(void const*, unsigned long, unsigned long) (23,655,021,648 samples, 5.27%)</title><rect x="763.0" y="181" width="62.2" height="15.0" fill="rgb(211,28,6)" rx="2" ry="2" />
<text  x="766.02" y="191.5" >std::_..</text>
</g>
<g >
<title>std::string::capacity() const (1,569,681,451 samples, 0.35%)</title><rect x="515.0" y="197" width="4.1" height="15.0" fill="rgb(239,157,37)" rx="2" ry="2" />
<text  x="518.02" y="207.5" ></text>
</g>
<g >
<title>std::string::_M_set_length(unsigned long) (2,600,977,174 samples, 0.58%)</title><rect x="483.8" y="197" width="6.9" height="15.0" fill="rgb(230,118,28)" rx="2" ry="2" />
<text  x="486.84" y="207.5" ></text>
</g>
<g >
<title>load_bytes (6,900,314,835 samples, 1.54%)</title><rect x="791.8" y="149" width="18.1" height="15.0" fill="rgb(253,221,52)" rx="2" ry="2" />
<text  x="794.80" y="159.5" ></text>
</g>
<g >
<title>std::allocator_traits&lt;…&gt;::deallocate(std::allocator&lt;…&gt;&amp;, char*, unsigned long) (460,032,006 samples, 0.10%)</title><rect x="1185.6" y="213" width="1.2" height="15.0" fill="rgb(209,21,5)" rx="2" ry="2" />
<text  x="1188.62" y="223.5" ></text>
</g>
<g >
<title>std::string::_M_data() const (251,997,516 samples, 0.06%)</title><rect x="1176.1" y="197" width="0.7" height="15.0" fill="rgb(231,119,28)" rx="2" ry="2" />
<text  x="1179.11" y="207.5" ></text>
</g>
<g >
<title>__GI___errno_location (391,782,873 samples, 0.09%)</title><rect x="390.6" y="197" width="1.0" height="15.0" fill="rgb(212,32,7)" rx="2" ry="2" />
<text  x="393.56" y="207.5" ></text>
</g>
<g >
<title>std::char_traits&lt;…&gt;::find(char const*, unsigned long, char const&amp;) (8,084,727,857 samples, 1.80%)</title><rect x="436.6" y="229" width="21.3" height="15.0" fill="rgb(246,191,45)" rx="2" ry="2" />
<text  x="439.62" y="239.5" ></text>
</g>
<g >
<title>std::string::_M_destroy(unsigned long) (478,412,584 samples, 0.11%)</title><rect x="1185.6" y="229" width="1.2" height="15.0" fill="rgb(210,25,6)" rx="2" ry="2" />
<text  x="1188.57" y="239.5" ></text>
</g>
<g >
<title>__GI___libc_read (291,651,917 samples, 0.06%)</title><rect x="435.7" y="133" width="0.7" height="15.0" fill="rgb(241,166,39)" rx="2" ry="2" />
<text  x="438.65" y="143.5" ></text>
</g>
<g >
<title>float __gnu_cxx::__stoa&lt;…&gt;(float (*)(char const*, char**), char const*, char const*, unsigned long*) (142,621,408,825 samples, 31.75%)</title><rect x="17.2" y="229" width="374.6" height="15.0" fill="rgb(234,136,32)" rx="2" ry="2" />
<text  x="20.18" y="239.5" >float __gnu_cxx::__stoa&lt;…&gt;(float (*)(char const*, ..</text>
</g>
<g >
<title>std::pair&lt;…&gt; std::unordered_map&lt;…&gt;::try_emplace&lt;…&gt;(std::string const&amp;, float&amp;) (116,531,258,730 samples, 25.94%)</title><rect x="519.2" y="261" width="306.1" height="15.0" fill="rgb(218,63,15)" rx="2" ry="2" />
<text  x="522.19" y="271.5" >std::pair&lt;…&gt; std::unordered_map&lt;…&gt;::try_e..</text>
</g>
<g >
<title>std::_Hashtable&lt;…&gt;::_M_bucket_index(std::__detail::_Hash_node_value&lt;…&gt; const&amp;) const (4,884,135,018 samples, 1.09%)</title><rect x="610.9" y="197" width="12.8" height="15.0" fill="rgb(235,138,33)" rx="2" ry="2" />
<text  x="613.91" y="207.5" ></text>
</g>
<g >
<title>__memmove_avx512_unaligned_erms (8,009,900,119 samples, 1.78%)</title><rect x="492.6" y="149" width="21.0" height="15.0" fill="rgb(223,84,20)" rx="2" ry="2" />
<text  x="495.59" y="159.5" ></text>
</g>
<g >
<title>__memcmp_evex_movbe (11,210,652,022 samples, 2.50%)</title><rect x="685.6" y="117" width="29.5" height="15.0" fill="rgb(219,67,16)" rx="2" ry="2" />
<text  x="688.61" y="127.5" >__..</text>
</g>
<g >
<title>void std::string::_M_construct&lt;…&gt;(char const*, char const*, std::forward_iterator_tag) (5,513,315,216 samples, 1.23%)</title><rect x="1171.1" y="229" width="14.5" height="15.0" fill="rgb(244,179,42)" rx="2" ry="2" />
<text  x="1174.08" y="239.5" ></text>
</g>
<g >
<title>[] (122,702,852 samples, 0.03%)</title><rect x="10.0" y="325" width="0.3" height="15.0" fill="rgb(224,91,21)" rx="2" ry="2" />
<text  x="13.00" y="335.5" ></text>
</g>
<g >
<title>std::basic_filebuf&lt;…&gt;::underflow() (413,069,775 samples, 0.09%)</title><rect x="435.5" y="181" width="1.1" height="15.0" fill="rgb(237,150,35)" rx="2" ry="2" />
<text  x="438.53" y="191.5" ></text>
</g>
<g >
<title>_init (102,126,870 samples, 0.02%)</title><rect x="16.9" y="261" width="0.3" height="15.0" fill="rgb(233,130,31)" rx="2" ry="2" />
<text  x="19.91" y="271.5" ></text>
</g>
<g >
<title>__GI_____strtof_l_internal (139,312,093,763 samples, 31.01%)</title><rect x="22.9" y="213" width="365.9" height="15.0" fill="rgb(246,191,45)" rx="2" ry="2" />
<text  x="25.88" y="223.5" >__GI_____strtof_l_internal</text>
</g>
<g >
<title>std::pair&lt;…&gt; std::_Hashtable&lt;…&gt;::try_emplace&lt;…&gt;(std::__detail::_Node_const_iterator&lt;…&gt;, std::string const&amp;, float&amp;) (116,531,258,730 samples, 25.94%)</title><rect x="519.2" y="245" width="306.1" height="15.0" fill="rgb(236,144,34)" rx="2" ry="2" />
<text  x="522.19" y="255.5" >std::pair&lt;…&gt; std::_Hashtable&lt;…&gt;::try_empl..</text>
</g>
<g >
<title>std::__basic_file&lt;…&gt;::xsgetn(char*, long)::read (291,651,917 samples, 0.06%)</title><rect x="435.7" y="149" width="0.7" height="15.0" fill="rgb(217,58,13)" rx="2" ry="2" />
<text  x="438.65" y="159.5" ></text>
</g>
<g >
<title>__internal_syscall_cancel (279,769,331 samples, 0.06%)</title><rect x="435.7" y="101" width="0.7" height="15.0" fill="rgb(251,214,51)" rx="2" ry="2" />
<text  x="438.68" y="111.5" ></text>
</g>
<g >
<title>long const&amp; std::min&lt;…&gt;(long const&amp;, long const&amp;) (328,924,360 samples, 0.07%)</title><rect x="421.6" y="229" width="0.9" height="15.0" fill="rgb(252,217,52)" rx="2" ry="2" />
<text  x="424.60" y="239.5" ></text>
</g>
<g >
<title>std::string::_M_length(unsigned long) (1,045,341,832 samples, 0.23%)</title><rect x="487.9" y="181" width="2.8" height="15.0" fill="rgb(239,156,37)" rx="2" ry="2" />
<text  x="490.93" y="191.5" ></text>
</g>
<g >
<title>__gnu_cxx::__stoa&lt;…&gt;(float (*)(char const*, char**), char const*, char const*, unsigned long*)::_Save_errno::~_Save_errno() (71,262,132 samples, 0.02%)</title><rect x="391.6" y="213" width="0.2" height="15.0" fill="rgb(239,158,37)" rx="2" ry="2" />
<text  x="394.63" y="223.5" ></text>
</g>
<g >
<title>std::__detail::_Hash_code_base&lt;…&gt;::_M_hash_code(std::string const&amp;) const (23,683,279,395 samples, 5.27%)</title><rect x="763.0" y="213" width="62.2" height="15.0" fill="rgb(211,27,6)" rx="2" ry="2" />
<text  x="766.02" y="223.5" >std::_..</text>
</g>
<g >
<title>all (449,190,484,236 samples, 100%)</title><rect x="10.0" y="341" width="1180.0" height="15.0" fill="rgb(213,39,9)" rx="2" ry="2" />
<text  x="13.00" y="351.5" ></text>
</g>
<g >
<title>std::basic_ios&lt;…&gt;::tie() const (685,317,519 samples, 0.15%)</title><rect x="471.7" y="213" width="1.8" height="15.0" fill="rgb(231,123,29)" rx="2" ry="2" />
<text  x="474.71" y="223.5" ></text>
</g>
<g >
<title>std::string::~string() (1,684,971,776 samples, 0.38%)</title><rect x="1185.6" y="261" width="4.4" height="15.0" fill="rgb(223,85,20)" rx="2" ry="2" />
<text  x="1188.57" y="271.5" ></text>
</g>
<g >
<title>std::char_traits&lt;…&gt;::compare(char const*, char const*, unsigned long) (13,218,037,805 samples, 2.94%)</title><rect x="680.6" y="133" width="34.7" height="15.0" fill="rgb(214,45,10)" rx="2" ry="2" />
<text  x="683.56" y="143.5" >st..</text>
</g>
<g >
<title>main::parse_value (142,837,225,878 samples, 31.80%)</title><rect x="17.2" y="261" width="375.2" height="15.0" fill="rgb(254,226,54)" rx="2" ry="2" />
<text  x="20.18" y="271.5" >main::parse_value</text>
</g>
<g >
<title>std::basic_ios&lt;…&gt;::widen(char) const (879,260,377 samples, 0.20%)</title><rect x="395.0" y="245" width="2.3" height="15.0" fill="rgb(231,122,29)" rx="2" ry="2" />
<text  x="398.02" y="255.5" ></text>
</g>
<g >
<title>std::string::find(char, unsigned long) const (131,003,720,932 samples, 29.16%)</title><rect x="825.3" y="261" width="344.2" height="15.0" fill="rgb(235,142,33)" rx="2" ry="2" />
<text  x="828.33" y="271.5" >std::string::find(char, unsigned long) const</text>
</g>
<g >
<title>_init (85,645,799 samples, 0.02%)</title><rect x="715.1" y="117" width="0.2" height="15.0" fill="rgb(233,130,31)" rx="2" ry="2" />
<text  x="718.06" y="127.5" ></text>
</g>
<g >
<title>[] (275,250,514 samples, 0.06%)</title><rect x="435.7" y="85" width="0.7" height="15.0" fill="rgb(224,91,21)" rx="2" ry="2" />
<text  x="438.70" y="95.5" ></text>
</g>
<g >
<title>std::__detail::_Hash_code_base&lt;…&gt;::_M_bucket_index(std::__detail::_Hash_node_value&lt;…&gt; const&amp;, unsigned long) const (4,884,135,018 samples, 1.09%)</title><rect x="610.9" y="181" width="12.8" height="15.0" fill="rgb(229,112,26)" rx="2" ry="2" />
<text  x="613.91" y="191.5" ></text>
</g>
<g >
<title>std::string::_Alloc_hider::_Alloc_hider(char*, std::allocator&lt;…&gt;&amp;&amp;) (242,371,278 samples, 0.05%)</title><rect x="1170.3" y="229" width="0.7" height="15.0" fill="rgb(226,99,23)" rx="2" ry="2" />
<text  x="1173.35" y="239.5" ></text>
</g>
<g >
<title>std::string::c_str() const (215,817,053 samples, 0.05%)</title><rect x="391.8" y="229" width="0.6" height="15.0" fill="rgb(222,80,19)" rx="2" ry="2" />
<text  x="394.84" y="239.5" ></text>
</g>
<g >
<title>std::basic_istream&lt;…&gt;&amp; std::getline&lt;…&gt;(std::basic_istream&lt;…&gt;&amp;, std::string&amp;) (48,214,460,212 samples, 10.73%)</title><rect x="392.5" y="261" width="126.6" height="15.0" fill="rgb(209,21,5)" rx="2" ry="2" />
<text  x="395.49" y="271.5" >std::basic_istr..</text>
</g>
<g >
<title>std::basic_streambuf&lt;…&gt;::sbumpc() (250,760,462 samples, 0.06%)</title><rect x="429.7" y="229" width="0.7" height="15.0" fill="rgb(207,12,3)" rx="2" ry="2" />
<text  x="432.72" y="239.5" ></text>
</g>
<g >
<title>[] (171,374,657 samples, 0.04%)</title><rect x="436.0" y="69" width="0.4" height="15.0" fill="rgb(224,91,21)" rx="2" ry="2" />
<text  x="438.97" y="79.5" ></text>
</g>
<g >
<title>std::basic_streambuf&lt;…&gt;::gptr() const (203,045,262 samples, 0.05%)</title><rect x="434.9" y="213" width="0.5" height="15.0" fill="rgb(215,50,12)" rx="2" ry="2" />
<text  x="437.91" y="223.5" ></text>
</g>
<g >
<title>std::_Hashtable&lt;…&gt;::_M_find_before_node(unsigned long, std::string const&amp;, unsigned long) const (76,556,476,619 samples, 17.04%)</title><rect x="561.9" y="213" width="201.1" height="15.0" fill="rgb(250,207,49)" rx="2" ry="2" />
<text  x="564.91" y="223.5" >std::_Hashtable&lt;…&gt;::_M_fin..</text>
</g>
<g >
<title>std::char_traits&lt;…&gt;::assign(char&amp;, char const&amp;) (144,010,402 samples, 0.03%)</title><rect x="483.8" y="181" width="0.4" height="15.0" fill="rgb(216,50,12)" rx="2" ry="2" />
<text  x="486.84" y="191.5" ></text>
</g>
<g >
<title>std::string::push_back(char) (1,569,681,451 samples, 0.35%)</title><rect x="515.0" y="213" width="4.1" height="15.0" fill="rgb(247,197,47)" rx="2" ry="2" />
<text  x="518.02" y="223.5" ></text>
</g>
<g >
<title>std::basic_streambuf&lt;…&gt;::sgetc() (415,162,176 samples, 0.09%)</title><rect x="435.5" y="213" width="1.1" height="15.0" fill="rgb(207,9,2)" rx="2" ry="2" />
<text  x="438.53" y="223.5" ></text>
</g>
<g >
<title>__gnu_cxx::__stoa&lt;…&gt;(float (*)(char const*, char**), char const*, char const*, unsigned long*)::_Save_errno::_Save_errno() (613,277,561 samples, 0.14%)</title><rect x="390.0" y="213" width="1.6" height="15.0" fill="rgb(253,222,53)" rx="2" ry="2" />
<text  x="393.02" y="223.5" ></text>
</g>
<g >
<title>void std::string::_S_copy_chars&lt;…&gt;(char*, char const*, char const*) (3,346,573,945 samples, 0.75%)</title><rect x="1176.8" y="213" width="8.8" height="15.0" fill="rgb(249,205,49)" rx="2" ry="2" />
<text  x="1179.78" y="223.5" ></text>
</g>
<g >
<title>std::string::_S_copy(char*, char const*, unsigned long) (8,694,867,735 samples, 1.94%)</title><rect x="490.8" y="181" width="22.8" height="15.0" fill="rgb(246,190,45)" rx="2" ry="2" />
<text  x="493.79" y="191.5" >s..</text>
</g>
<g >
<title>std::char_traits&lt;…&gt;::assign(char&amp;, char const&amp;) (91,791,700 samples, 0.02%)</title><rect x="514.7" y="197" width="0.3" height="15.0" fill="rgb(216,50,12)" rx="2" ry="2" />
<text  x="517.73" y="207.5" ></text>
</g>
<g >
<title>_tens_in_limb (120,468,138 samples, 0.03%)</title><rect x="10.0" y="309" width="0.3" height="15.0" fill="rgb(215,46,11)" rx="2" ry="2" />
<text  x="13.00" y="319.5" ></text>
</g>
<g >
<title>__memmove_avx512_unaligned_erms (2,906,098,948 samples, 0.65%)</title><rect x="1177.7" y="149" width="7.6" height="15.0" fill="rgb(223,84,20)" rx="2" ry="2" />
<text  x="1180.70" y="159.5" ></text>
</g>
<g >
<title>shift_mix (5,801,081,473 samples, 1.29%)</title><rect x="809.9" y="149" width="15.3" height="15.0" fill="rgb(240,165,39)" rx="2" ry="2" />
<text  x="812.92" y="159.5" ></text>
</g>
<g >
<title>std::string::size() const (18,172,020,398 samples, 4.05%)</title><rect x="715.3" y="133" width="47.7" height="15.0" fill="rgb(242,173,41)" rx="2" ry="2" />
<text  x="718.29" y="143.5" >std:..</text>
</g>
<g >
<title>_init (89,634,393 samples, 0.02%)</title><rect x="1185.3" y="149" width="0.3" height="15.0" fill="rgb(233,130,31)" rx="2" ry="2" />
<text  x="1188.33" y="159.5" ></text>
</g>
<g >
<title>__GI___libc_free (399,318,137 samples, 0.09%)</title><rect x="1185.6" y="181" width="1.1" height="15.0" fill="rgb(252,218,52)" rx="2" ry="2" />
<text  x="1188.62" y="191.5" ></text>
</g>
<g >
<title>__GI_memcpy (6,749,302,535 samples, 1.50%)</title><rect x="238.1" y="197" width="17.7" height="15.0" fill="rgb(236,146,35)" rx="2" ry="2" />
<text  x="241.11" y="207.5" ></text>
</g>
<g >
<title>round_and_return::__mpn_add_1 (3,747,648,672 samples, 0.83%)</title><rect x="366.7" y="181" width="9.9" height="15.0" fill="rgb(218,62,14)" rx="2" ry="2" />
<text  x="369.73" y="191.5" ></text>
</g>
<g >
<title>__memmove_chk_avx512_unaligned_erms (2,753,482,966 samples, 0.61%)</title><rect x="248.6" y="181" width="7.2" height="15.0" fill="rgb(207,9,2)" rx="2" ry="2" />
<text  x="251.60" y="191.5" ></text>
</g>
<g >
<title>bool std::operator==&lt;…&gt;(std::string const&amp;, std::string const&amp;) (35,767,204,669 samples, 7.96%)</title><rect x="669.1" y="149" width="93.9" height="15.0" fill="rgb(226,97,23)" rx="2" ry="2" />
<text  x="672.06" y="159.5" >bool std::o..</text>
</g>
<g >
<title>std::char_traits&lt;…&gt;::copy(char*, char const*, unsigned long) (8,057,812,320 samples, 1.79%)</title><rect x="492.5" y="165" width="21.1" height="15.0" fill="rgb(218,64,15)" rx="2" ry="2" />
<text  x="495.46" y="175.5" ></text>
</g>
<g >
<title>std::__detail::_Mod_range_hashing::operator()(unsigned long, unsigned long) const (16,055,090,193 samples, 3.57%)</title><rect x="519.7" y="181" width="42.2" height="15.0" fill="rgb(208,14,3)" rx="2" ry="2" />
<text  x="522.74" y="191.5" >std..</text>
</g>
<g >
<title>__GI___libc_malloc::checked_request2size (58,349,404 samples, 0.01%)</title><rect x="1174.7" y="181" width="0.2" height="15.0" fill="rgb(209,22,5)" rx="2" ry="2" />
<text  x="1177.75" y="191.5" ></text>
</g>
<g >
<title>[] (158,050,869 samples, 0.04%)</title><rect x="436.0" y="53" width="0.4" height="15.0" fill="rgb(224,91,21)" rx="2" ry="2" />
<text  x="439.00" y="63.5" ></text>
</g>
<g >
<title>std::string::_S_copy(char*, char const*, unsigned long) (3,236,327,652 samples, 0.72%)</title><rect x="1177.1" y="181" width="8.5" height="15.0" fill="rgb(246,190,45)" rx="2" ry="2" />
<text  x="1180.07" y="191.5" ></text>
</g>
<g >
<title>round_away (2,655,632,712 samples, 0.59%)</title><rect x="381.9" y="181" width="6.9" height="15.0" fill="rgb(230,116,27)" rx="2" ry="2" />
<text  x="384.87" y="191.5" ></text>
</g>
<g >
<title>std::string::_M_create(unsigned long&amp;, unsigned long) (92,449,522 samples, 0.02%)</title><rect x="1175.5" y="213" width="0.2" height="15.0" fill="rgb(233,132,31)" rx="2" ry="2" />
<text  x="1178.50" y="223.5" ></text>
</g>
<g >
<title>std::basic_streambuf&lt;…&gt;::__safe_gbump(long) (1,373,906,342 samples, 0.31%)</title><rect x="426.1" y="229" width="3.6" height="15.0" fill="rgb(212,33,7)" rx="2" ry="2" />
<text  x="429.11" y="239.5" ></text>
</g>
<g >
<title>__GI___libc_malloc (659,294,664 samples, 0.15%)</title><rect x="1173.8" y="197" width="1.7" height="15.0" fill="rgb(219,68,16)" rx="2" ry="2" />
<text  x="1176.77" y="207.5" ></text>
</g>
<g >
<title>Measurement::update(float) (1,260,831,537 samples, 0.28%)</title><rect x="13.6" y="261" width="3.3" height="15.0" fill="rgb(207,9,2)" rx="2" ry="2" />
<text  x="16.60" y="271.5" ></text>
</g>
<g >
<title>std::string::_S_copy(char*, char const*, unsigned long) (3,346,573,945 samples, 0.75%)</title><rect x="1176.8" y="197" width="8.8" height="15.0" fill="rgb(246,190,45)" rx="2" ry="2" />
<text  x="1179.78" y="207.5" ></text>
</g>
<g >
<title>__syscall_cancel (283,623,704 samples, 0.06%)</title><rect x="435.7" y="117" width="0.7" height="15.0" fill="rgb(227,102,24)" rx="2" ry="2" />
<text  x="438.67" y="127.5" ></text>
</g>
<g >
<title>std::ctype&lt;…&gt;::widen(char) const (765,322,449 samples, 0.17%)</title><rect x="395.3" y="229" width="2.0" height="15.0" fill="rgb(207,11,2)" rx="2" ry="2" />
<text  x="398.32" y="239.5" ></text>
</g>
<g >
<title>__memchr_evex (128,921,467,654 samples, 28.70%)</title><rect x="830.8" y="229" width="338.7" height="15.0" fill="rgb(221,76,18)" rx="2" ry="2" />
<text  x="833.79" y="239.5" >__memchr_evex</text>
</g>
<g >
<title>_start (449,067,781,384 samples, 99.97%)</title><rect x="10.3" y="325" width="1179.7" height="15.0" fill="rgb(245,185,44)" rx="2" ry="2" />
<text  x="13.32" y="335.5" >_start</text>
</g>
<g >
<title>std::string::_M_set_length(unsigned long) (109,833,816 samples, 0.02%)</title><rect x="514.7" y="213" width="0.3" height="15.0" fill="rgb(230,118,28)" rx="2" ry="2" />
<text  x="517.73" y="223.5" ></text>
</g>
<g >
<title>std::__basic_file&lt;…&gt;::xsgetn(char*, long) (319,738,994 samples, 0.07%)</title><rect x="435.6" y="165" width="0.8" height="15.0" fill="rgb(228,108,25)" rx="2" ry="2" />
<text  x="438.58" y="175.5" ></text>
</g>
<g >
<title>__mpn_construct_float (4,480,992,305 samples, 1.00%)</title><rect x="255.8" y="197" width="11.8" height="15.0" fill="rgb(230,117,28)" rx="2" ry="2" />
<text  x="258.84" y="207.5" ></text>
</g>
<g >
<title>__memmove_avx512_unaligned_erms (2,555,176,827 samples, 0.57%)</title><rect x="241.9" y="181" width="6.7" height="15.0" fill="rgb(223,84,20)" rx="2" ry="2" />
<text  x="244.89" y="191.5" ></text>
</g>
<g >
<title>__libc_start_call_main (449,065,847,469 samples, 99.97%)</title><rect x="10.3" y="293" width="1179.7" height="15.0" fill="rgb(210,26,6)" rx="2" ry="2" />
<text  x="13.32" y="303.5" >__libc_start_call_main</text>
</g>
<g >
<title>std::string::erase(unsigned long, unsigned long) (109,833,816 samples, 0.02%)</title><rect x="514.7" y="229" width="0.3" height="15.0" fill="rgb(250,207,49)" rx="2" ry="2" />
<text  x="517.73" y="239.5" ></text>
</g>
<g >
<title>std::ctype&lt;…&gt; const&amp; std::__check_facet&lt;…&gt;(std::ctype&lt;…&gt; const*) (113,937,928 samples, 0.03%)</title><rect x="395.0" y="229" width="0.3" height="15.0" fill="rgb(207,11,2)" rx="2" ry="2" />
<text  x="398.02" y="239.5" ></text>
</g>
<g >
<title>operator delete(void*) (38,384,091 samples, 0.01%)</title><rect x="1186.7" y="181" width="0.1" height="15.0" fill="rgb(249,204,48)" rx="2" ry="2" />
<text  x="1189.67" y="191.5" ></text>
</g>
<g >
<title>std::basic_streambuf&lt;…&gt;::gbump(int) (244,804,867 samples, 0.05%)</title><rect x="429.7" y="213" width="0.7" height="15.0" fill="rgb(236,145,34)" rx="2" ry="2" />
<text  x="432.74" y="223.5" ></text>
</g>
<g >
<title>std::char_traits&lt;…&gt;::find(char const*, unsigned long, char const&amp;) (128,980,605,001 samples, 28.71%)</title><rect x="830.6" y="245" width="338.9" height="15.0" fill="rgb(246,191,45)" rx="2" ry="2" />
<text  x="833.64" y="255.5" >std::char_traits&lt;…&gt;::find(char const*, unsign..</text>
</g>
<g >
<title>__GI_strtof (446,962,564 samples, 0.10%)</title><rect x="388.8" y="213" width="1.2" height="15.0" fill="rgb(238,153,36)" rx="2" ry="2" />
<text  x="391.84" y="223.5" ></text>
</g>
<g >
<title>__internal_syscall_cancel (120,468,138 samples, 0.03%)</title><rect x="10.0" y="293" width="0.3" height="15.0" fill="rgb(251,214,51)" rx="2" ry="2" />
<text  x="13.00" y="303.5" ></text>
</g>
<g >
<title>__GI_____strtof_l_internal::str_to_mpn (16,725,791,589 samples, 3.72%)</title><rect x="194.2" y="197" width="43.9" height="15.0" fill="rgb(236,145,34)" rx="2" ry="2" />
<text  x="197.17" y="207.5" >__GI..</text>
</g>
<g >
<title>std::basic_streambuf&lt;…&gt;::snextc() (415,162,176 samples, 0.09%)</title><rect x="435.5" y="229" width="1.1" height="15.0" fill="rgb(236,145,34)" rx="2" ry="2" />
<text  x="438.53" y="239.5" ></text>
</g>
<g >
<title>std::equal_to&lt;…&gt;::operator()(std::string const&amp;, std::string const&amp;) const (35,767,204,669 samples, 7.96%)</title><rect x="669.1" y="165" width="93.9" height="15.0" fill="rgb(254,227,54)" rx="2" ry="2" />
<text  x="672.06" y="175.5" >std::equal_..</text>
</g>
<g >
<title>std::__detail::_Hashtable_base&lt;…&gt;::_M_equals(std::string const&amp;, unsigned long, std::__detail::_Hash_node_value&lt;…&gt; const&amp;) const (53,020,963,312 samples, 11.80%)</title><rect x="623.7" y="197" width="139.3" height="15.0" fill="rgb(208,14,3)" rx="2" ry="2" />
<text  x="626.74" y="207.5" >std::__detail::_H..</text>
</g>
<g >
<title>__memchr_evex (6,758,591,628 samples, 1.50%)</title><rect x="440.1" y="213" width="17.8" height="15.0" fill="rgb(221,76,18)" rx="2" ry="2" />
<text  x="443.11" y="223.5" ></text>
</g>
<g >
<title>__libc_start_main_impl (449,065,847,469 samples, 99.97%)</title><rect x="10.3" y="309" width="1179.7" height="15.0" fill="rgb(218,63,15)" rx="2" ry="2" />
<text  x="13.32" y="319.5" >__libc_start_main_impl</text>
</g>
<g >
<title>std::string::append(char const*, unsigned long) (15,690,602,255 samples, 3.49%)</title><rect x="473.5" y="229" width="41.2" height="15.0" fill="rgb(225,95,22)" rx="2" ry="2" />
<text  x="476.51" y="239.5" >std..</text>
</g>
<g >
<title>std::__detail::_Hash_code_base&lt;…&gt;::_M_bucket_index(unsigned long, unsigned long) const (16,055,090,193 samples, 3.57%)</title><rect x="519.7" y="197" width="42.2" height="15.0" fill="rgb(217,58,13)" rx="2" ry="2" />
<text  x="522.74" y="207.5" >std..</text>
</g>
<g >
<title>std::string::_M_local_data() const (1,569,681,451 samples, 0.35%)</title><rect x="515.0" y="165" width="4.1" height="15.0" fill="rgb(238,155,37)" rx="2" ry="2" />
<text  x="518.02" y="175.5" ></text>
</g>
<g >
<title>std::__new_allocator&lt;…&gt;::deallocate(char*, unsigned long) (460,032,006 samples, 0.10%)</title><rect x="1185.6" y="197" width="1.2" height="15.0" fill="rgb(218,61,14)" rx="2" ry="2" />
<text  x="1188.62" y="207.5" ></text>
</g>
<g >
<title>std::basic_streambuf&lt;…&gt;::sgetc() (1,959,836,157 samples, 0.44%)</title><rect x="430.4" y="229" width="5.1" height="15.0" fill="rgb(207,9,2)" rx="2" ry="2" />
<text  x="433.38" y="239.5" ></text>
</g>
<g >
<title>std::__detail::_Mod_range_hashing::operator()(unsigned long, unsigned long) const (4,884,135,018 samples, 1.09%)</title><rect x="610.9" y="165" width="12.8" height="15.0" fill="rgb(208,14,3)" rx="2" ry="2" />
<text  x="613.91" y="175.5" ></text>
</g>
<g >
<title>std::char_traits&lt;…&gt;::copy(char*, char const*, unsigned long) (3,236,327,652 samples, 0.72%)</title><rect x="1177.1" y="165" width="8.5" height="15.0" fill="rgb(218,64,15)" rx="2" ry="2" />
<text  x="1180.07" y="175.5" ></text>
</g>
<g >
<title>std::string::_M_is_local() const (1,569,681,451 samples, 0.35%)</title><rect x="515.0" y="181" width="4.1" height="15.0" fill="rgb(216,51,12)" rx="2" ry="2" />
<text  x="518.02" y="191.5" ></text>
</g>
<g >
<title>std::__codecvt_abstract_base&lt;…&gt;::always_noconv() const (70,448,514 samples, 0.02%)</title><rect x="436.4" y="165" width="0.2" height="15.0" fill="rgb(249,205,49)" rx="2" ry="2" />
<text  x="439.42" y="175.5" ></text>
</g>
<g >
<title>std::istream::sentry::sentry(std::istream&amp;, bool) (5,338,520,854 samples, 1.19%)</title><rect x="459.5" y="229" width="14.0" height="15.0" fill="rgb(238,152,36)" rx="2" ry="2" />
<text  x="462.49" y="239.5" ></text>
</g>
<g >
<title>[] (120,468,138 samples, 0.03%)</title><rect x="10.0" y="277" width="0.3" height="15.0" fill="rgb(224,91,21)" rx="2" ry="2" />
<text  x="13.00" y="287.5" ></text>
</g>
<g >
<title>std::basic_streambuf&lt;…&gt;::sgetc() (415,162,176 samples, 0.09%)</title><rect x="435.5" y="197" width="1.1" height="15.0" fill="rgb(207,9,2)" rx="2" ry="2" />
<text  x="438.53" y="207.5" ></text>
</g>
<g >
<title>std::string::_M_check_length(unsigned long, unsigned long, char const*) const (65,974,868 samples, 0.01%)</title><rect x="514.6" y="213" width="0.1" height="15.0" fill="rgb(211,30,7)" rx="2" ry="2" />
<text  x="517.56" y="223.5" ></text>
</g>
<g >
<title>std::string::_M_set_length(unsigned long) (360,896,912 samples, 0.08%)</title><rect x="1175.8" y="213" width="1.0" height="15.0" fill="rgb(230,118,28)" rx="2" ry="2" />
<text  x="1178.83" y="223.5" ></text>
</g>
</g>
</svg>
